# xmcd
#
# Track frame offsets: 
#        150
#        2992
#        14841
#        39159
#        55419
#        62478
#        72899
#        88470
#        109160
#        112835
#        133920
#        152689
#        173832
#        176293
#        204568
#        220041
#
# Disc length: 2955 seconds
#
# Revision: 1
# Processed by: cddbd v1.5.2PL0 Copyright (c) Steve Scherf et al.
# Submitted via: ExactAudioCopy v0.99pb4
#
DISCID=dd0b8910
DTITLE=The Necro Tonz - Welcome To Cocktail Hell
DYEAR=2002
DGENRE=Lounge
TTITLE0=Ferd's Famous Formalcohol Hour
TTITLE1=Last Wish
TTITLE2=Welsome To Cocktail Hell
TTITLE3=The Day Death Took A Bride
TTITLE4=News Flash!
TTITLE5=Skulls
TTITLE6=Kill Me Now
TTITLE7=Fare Thee Well (And Go To Hell)
TTITLE8=Meet The Necro Tonz
TTITLE9=Death, Don't Worry
TTITLE10=La Petite Morte
TTITLE11=Ghoul From Ipanema
TTITLE12=And Now, A Word From Our Sponsor
TTITLE13=Faeries Wear Boots
TTITLE14=I'm Going Home
TTITLE15=Fin
EXTD=YEAR: 2002
EXTT0=
EXTT1=
EXTT2=
EXTT3=
EXTT4=
EXTT5=
EXTT6=
EXTT7=
EXTT8=
EXTT9=
EXTT10=
EXTT11=
EXTT12=
EXTT13=
EXTT14=
EXTT15=
PLAYORDER=
